<svg xmlns="http://www.w3.org/2000/svg" viewBox="0 0 155.2 35.55"><defs><style>.cls-1{fill:#fff;}.cls-2{fill:#30bdd2;}</style></defs><title>Asset 1</title><g id="Layer_2" data-name="Layer 2"><g id="Layer_1-2" data-name="Layer 1"><path class="cls-1" d="M23.67,27.39a2.24,2.24,0,1,1-2.24-2.24,2.23,2.23,0,0,1,2.24,2.24"/><path class="cls-1" d="M9.32,18.79a9.3,9.3,0,0,1-3.71-.73,9.05,9.05,0,0,1-3-2,9.12,9.12,0,0,1-1.95-3A9.77,9.77,0,0,1,0,9.45v0A9.64,9.64,0,0,1,.7,5.75a9.39,9.39,0,0,1,2-3,9,9,0,0,1,3-2A9.79,9.79,0,0,1,9.48,0,11.91,11.91,0,0,1,11.8.21a9.21,9.21,0,0,1,1.9.57,8.42,8.42,0,0,1,1.59.88A11.31,11.31,0,0,1,16.64,2.8L14.1,5.74a9.69,9.69,0,0,0-2.17-1.51,5.57,5.57,0,0,0-2.48-.54,5.15,5.15,0,0,0-2.12.43A5.21,5.21,0,0,0,5.66,5.35a5.67,5.67,0,0,0-1.09,1.8,6.08,6.08,0,0,0-.39,2.19V9.4a6.21,6.21,0,0,0,.39,2.2,5.71,5.71,0,0,0,1.08,1.82,4.86,4.86,0,0,0,1.66,1.23,5,5,0,0,0,2.14.45,5.53,5.53,0,0,0,2.63-.57A10.08,10.08,0,0,0,14.23,13l2.54,2.57a14,14,0,0,1-1.45,1.35,8.73,8.73,0,0,1-1.65,1,9,9,0,0,1-2,.65A11.64,11.64,0,0,1,9.32,18.79Z"/><path class="cls-1" d="M19.44.31h4V18.48h-4Z"/><path class="cls-1" d="M31.51,4H26V.31H41V4H35.5V18.48h-4Z"/><path class="cls-1" d="M48.51,11.32l-7-11H46.2L50.54,7.6,55,.31h4.54l-7,10.93v7.24h-4Z"/><path class="cls-2" d="M61,.31h4.31L70.06,8,74.84.31h4.3V18.48H75.2V6.62l-5.11,7.76H70L64.92,6.7V18.48H61Z"/><path class="cls-2" d="M91.63,18.79a10,10,0,0,1-3.87-.74,9.56,9.56,0,0,1-3.05-2,9.05,9.05,0,0,1-2-3A9.41,9.41,0,0,1,82,9.45v0a9.12,9.12,0,0,1,.73-3.65,9.22,9.22,0,0,1,2-3,9.15,9.15,0,0,1,3.06-2,10.52,10.52,0,0,1,7.75,0,9.67,9.67,0,0,1,3,2,9,9,0,0,1,2,3,9.24,9.24,0,0,1,.72,3.64V9.4a9.07,9.07,0,0,1-.73,3.64,9.43,9.43,0,0,1-2,3,9.33,9.33,0,0,1-3.06,2A10.08,10.08,0,0,1,91.63,18.79Zm.05-3.69a5.39,5.39,0,0,0,2.21-.44,5,5,0,0,0,1.72-1.22,5.75,5.75,0,0,0,1.12-1.8,6.08,6.08,0,0,0,.4-2.19v0a6.23,6.23,0,0,0-.4-2.21,5.61,5.61,0,0,0-1.14-1.82,5.47,5.47,0,0,0-1.76-1.23,5.34,5.34,0,0,0-2.2-.45,5.46,5.46,0,0,0-2.22.43,5.2,5.2,0,0,0-1.72,1.23,5.87,5.87,0,0,0-1.51,4V9.4a6,6,0,0,0,.4,2.2,5.44,5.44,0,0,0,2.88,3.05A5.37,5.37,0,0,0,91.68,15.1Z"/><path class="cls-2" d="M104.16.31h8.31a7.16,7.16,0,0,1,5.29,1.85,5.59,5.59,0,0,1,1.56,4.15v.05A5.66,5.66,0,0,1,118.24,10a6.13,6.13,0,0,1-2.81,2l4.43,6.49H115.2l-3.9-5.81h-3.14v5.81h-4Zm8,8.83a3.3,3.3,0,0,0,2.27-.71,2.35,2.35,0,0,0,.79-1.86V6.52a2.3,2.3,0,0,0-.83-1.95,3.69,3.69,0,0,0-2.31-.65h-4V9.14Z"/><path class="cls-2" d="M122.23.31h7.42a8.82,8.82,0,0,1,2.92.45,6.37,6.37,0,0,1,2.18,1.29,5.38,5.38,0,0,1,1.37,2,6.46,6.46,0,0,1,.49,2.56v0A6.22,6.22,0,0,1,136,9.42a5.59,5.59,0,0,1-1.56,2,7,7,0,0,1-2.34,1.21,9.86,9.86,0,0,1-2.87.4h-3v5.45h-4Zm7.16,9.17a3.23,3.23,0,0,0,2.33-.8,2.59,2.59,0,0,0,.84-2v0a2.48,2.48,0,0,0-.87-2,3.66,3.66,0,0,0-2.37-.7h-3.1V9.48Z"/><path class="cls-2" d="M138.86.31h4V7.5h7.37V.31h4V18.48h-4V11.19h-7.37v7.29h-4Z"/><path class="cls-1" d="M59.82,33.52,61.14,32a5.79,5.79,0,0,0,3.94,1.62c1.36,0,2.22-.64,2.22-1.57v0c0-.9-.5-1.38-2.82-1.91-2.66-.65-4.16-1.43-4.16-3.74v0c0-2.14,1.78-3.63,4.26-3.63a7,7,0,0,1,4.54,1.57l-1.18,1.66a5.72,5.72,0,0,0-3.39-1.28c-1.29,0-2,.66-2,1.48v0c0,1,.57,1.39,3,2,2.65.64,4,1.59,4,3.66v0c0,2.34-1.84,3.73-4.46,3.73A7.69,7.69,0,0,1,59.82,33.52Z"/><path class="cls-1" d="M80.12,24.88h-4v-2H86.3v2h-4V35.34H80.12Z"/><path class="cls-1" d="M93.65,30v-7.2h2.2V30c0,2.32,1.2,3.55,3.16,3.55s3.14-1.16,3.14-3.46v-7.2h2.2v7.09c0,3.73-2.11,5.61-5.38,5.61S93.65,33.66,93.65,30Z"/><path class="cls-1" d="M112.6,22.84h4.66c3.93,0,6.64,2.7,6.64,6.22v0c0,3.52-2.71,6.25-6.64,6.25H112.6Zm2.2,2v8.5h2.46a4.08,4.08,0,0,0,4.34-4.21v0a4.1,4.1,0,0,0-4.34-4.25Z"/><path class="cls-1" d="M131.92,22.84h2.2v12.5h-2.2Z"/><path class="cls-1" d="M142.13,29.13v0a6.54,6.54,0,0,1,13.07,0v0a6.54,6.54,0,0,1-13.07,0Zm10.77,0v0a4.28,4.28,0,0,0-4.25-4.44,4.22,4.22,0,0,0-4.21,4.41v0a4.26,4.26,0,0,0,4.24,4.43A4.21,4.21,0,0,0,152.9,29.13Z"/></g></g></svg>